<svg xmlns="http://www.w3.org/2000/svg" xmlns:xlink="http://www.w3.org/1999/xlink" width="500" zoomAndPan="magnify" viewBox="0 0 375 374.999991" height="500" preserveAspectRatio="xMidYMid meet" version="1.0"><defs><clipPath id="8832c70c92"><path d="M 8.613281 8.613281 L 366.363281 8.613281 L 366.363281 366.363281 L 8.613281 366.363281 Z M 8.613281 8.613281 " clip-rule="nonzero"/></clipPath><clipPath id="b9bf5c3c9a"><path d="M 187.488281 8.613281 C 88.699219 8.613281 8.613281 88.699219 8.613281 187.488281 C 8.613281 286.28125 88.699219 366.363281 187.488281 366.363281 C 286.28125 366.363281 366.363281 286.28125 366.363281 187.488281 C 366.363281 88.699219 286.28125 8.613281 187.488281 8.613281 " clip-rule="nonzero"/></clipPath><clipPath id="74f8e8e096"><path d="M 115 37 L 260 37 L 260 151 L 115 151 Z M 115 37 " clip-rule="nonzero"/></clipPath><clipPath id="78e33c1a88"><path d="M 115.253906 127.125 L 243.367188 37.417969 L 260.261719 61.546875 L 132.148438 151.253906 Z M 115.253906 127.125 " clip-rule="nonzero"/></clipPath><clipPath id="27a40c1a07"><path d="M 115.253906 127.125 L 243.253906 37.5 L 259.75 61.0625 L 131.75 150.6875 Z M 115.253906 127.125 " clip-rule="nonzero"/></clipPath><clipPath id="33c370f335"><path d="M 115.253906 127.078125 L 145.597656 127.078125 L 145.597656 326.628906 L 115.253906 326.628906 Z M 115.253906 127.078125 " clip-rule="nonzero"/></clipPath><clipPath id="e27e7f6e25"><path d="M 121 84 L 260 84 L 260 194 L 121 194 Z M 121 84 " clip-rule="nonzero"/></clipPath><clipPath id="40c3b736b4"><path d="M 121.195312 170.214844 L 243.566406 84.53125 L 260.460938 108.660156 L 138.089844 194.34375 Z M 121.195312 170.214844 " clip-rule="nonzero"/></clipPath><clipPath id="8e709e944c"><path d="M 121.195312 170.214844 L 243.035156 84.902344 L 259.53125 108.464844 L 137.695312 193.777344 Z M 121.195312 170.214844 " clip-rule="nonzero"/></clipPath><clipPath id="8dbbe49124"><path d="M 158.21875 149.21875 L 188.566406 149.21875 L 188.566406 326.625 L 158.21875 326.625 Z M 158.21875 149.21875 " clip-rule="nonzero"/></clipPath><clipPath id="9e49f1d45c"><path d="M 169 161 L 260 161 L 260 237 L 169 237 Z M 169 161 " clip-rule="nonzero"/></clipPath><clipPath id="316d7698d0"><path d="M 169.738281 213.097656 L 243.273438 161.609375 L 260.171875 185.738281 L 186.632812 237.226562 Z M 169.738281 213.097656 " clip-rule="nonzero"/></clipPath><clipPath id="c200f9575f"><path d="M 169.738281 213.097656 L 243.253906 161.625 L 259.75 185.183594 L 186.238281 236.660156 Z M 169.738281 213.097656 " clip-rule="nonzero"/></clipPath><clipPath id="5d61b710b4"><path d="M 229.183594 108.449219 L 259.53125 108.449219 L 259.53125 185.292969 L 229.183594 185.292969 Z M 229.183594 108.449219 " clip-rule="nonzero"/></clipPath><clipPath id="7973085c06"><path d="M 229.183594 240.230469 L 259.53125 240.230469 L 259.53125 326.625 L 229.183594 326.625 Z M 229.183594 240.230469 " clip-rule="nonzero"/></clipPath><clipPath id="384269b8c5"><path d="M 201 189 L 260 189 L 260 257 L 201 257 Z M 201 189 " clip-rule="nonzero"/></clipPath><clipPath id="473c84494c"><path d="M 224.691406 189.96875 L 260.089844 240.523438 L 235.960938 257.417969 L 200.5625 206.863281 Z M 224.691406 189.96875 " clip-rule="nonzero"/></clipPath><clipPath id="65c1cb1ee9"><path d="M 224.691406 189.96875 L 259.742188 240.027344 L 236.183594 256.527344 L 201.128906 206.464844 Z M 224.691406 189.96875 " clip-rule="nonzero"/></clipPath></defs><g clip-path="url(#8832c70c92)"><g clip-path="url(#b9bf5c3c9a)"><path stroke-linecap="butt" transform="matrix(0.749975, 0, 0, 0.749975, 8.61464, 8.614636)" fill="none" stroke-linejoin="miter" d="M 238.506027 -0.00180607 C 106.782947 -0.00180607 -0.00181207 106.782953 -0.00181207 238.506033 C -0.00181207 370.23432 106.782947 477.013871 238.506027 477.013871 C 370.234314 477.013871 477.013865 370.23432 477.013865 238.506033 C 477.013865 106.782953 370.234314 -0.00180607 238.506027 -0.00180607 " stroke="#000000" stroke-width="32" stroke-opacity="1" stroke-miterlimit="4"/></g></g><g clip-path="url(#74f8e8e096)"><g clip-path="url(#78e33c1a88)"><g clip-path="url(#27a40c1a07)"><path fill="#000000" d="M 115.253906 127.125 L 243.367188 37.417969 L 259.859375 60.972656 L 131.746094 150.679688 Z M 115.253906 127.125 " fill-opacity="1" fill-rule="nonzero"/></g></g></g><g clip-path="url(#33c370f335)"><path fill="#000000" d="M 115.253906 326.628906 L 115.253906 126.746094 L 145.410156 126.746094 L 145.410156 326.628906 Z M 115.253906 326.628906 " fill-opacity="1" fill-rule="nonzero"/></g><g clip-path="url(#e27e7f6e25)"><g clip-path="url(#40c3b736b4)"><g clip-path="url(#8e709e944c)"><path fill="#000000" d="M 121.195312 170.214844 L 242.988281 84.933594 L 259.484375 108.488281 L 137.6875 193.769531 Z M 121.195312 170.214844 " fill-opacity="1" fill-rule="nonzero"/></g></g></g><g clip-path="url(#8dbbe49124)"><path fill="#000000" d="M 158.21875 326.625 L 158.21875 149.1875 L 188.378906 149.1875 L 188.378906 326.625 Z M 158.21875 326.625 " fill-opacity="1" fill-rule="nonzero"/></g><g clip-path="url(#9e49f1d45c)"><g clip-path="url(#316d7698d0)"><g clip-path="url(#c200f9575f)"><path fill="#000000" d="M 169.738281 213.097656 L 243.273438 161.609375 L 259.769531 185.164062 L 186.230469 236.652344 Z M 169.738281 213.097656 " fill-opacity="1" fill-rule="nonzero"/></g></g></g><g clip-path="url(#5d61b710b4)"><path fill="#000000" d="M 229.183594 185.292969 L 229.183594 108.144531 L 259.34375 108.144531 L 259.34375 185.292969 Z M 229.183594 185.292969 " fill-opacity="1" fill-rule="nonzero"/></g><g clip-path="url(#7973085c06)"><path fill="#000000" d="M 229.183594 326.625 L 229.183594 240.363281 L 259.34375 240.363281 L 259.34375 326.625 Z M 229.183594 326.625 " fill-opacity="1" fill-rule="nonzero"/></g><g clip-path="url(#384269b8c5)"><g clip-path="url(#473c84494c)"><g clip-path="url(#65c1cb1ee9)"><path fill="#000000" d="M 224.691406 189.96875 L 259.6875 239.949219 L 236.136719 256.441406 L 201.136719 206.460938 Z M 224.691406 189.96875 " fill-opacity="1" fill-rule="nonzero"/></g></g></g></svg>